<svg width="800" height="270" xmlns="http://www.w3.org/2000/svg">
 <!-- Created with SVG-edit - http://svg-edit.googlecode.com/ -->
 <g transform="scale(0.8)">
  <title>Layer 1</title>
  <rect id="svg_2" height="243.999992" width="362.999989" y="82.000008" x="43.000008" stroke-linecap="null" stroke-linejoin="null" stroke-width="0" stroke="#000000" fill="#000000"/>
  <rect fill="#bfbfbf" stroke="#000000" stroke-width="4" stroke-linejoin="null" stroke-linecap="null" x="600" y="200" width="30" height="30" id="svg_4"/>
  <rect fill="#ffffff" stroke="#000000" stroke-width="4" stroke-linejoin="null" stroke-linecap="null" x="600" y="230" width="30" height="30" id="svg_5"/>
  <rect fill="#3f3f3f" stroke="#000000" stroke-width="4" stroke-linejoin="null" stroke-linecap="null" x="600" y="260" width="30" height="30" id="svg_6"/>
  <rect fill="#ffffff" stroke="#000000" stroke-width="4" stroke-linejoin="null" stroke-linecap="null" x="600" y="110" width="30" height="30" id="svg_7"/>
  <rect fill="#ffffff" stroke="#000000" stroke-width="4" stroke-linejoin="null" stroke-linecap="null" x="670" y="170" width="30" height="30" id="svg_8"/>
  <rect fill="#ffffff" stroke="#000000" stroke-width="4" stroke-linejoin="null" stroke-linecap="null" x="670" y="140" width="30" height="30" id="svg_9"/>
  <rect fill="#7f7f7f" stroke="#000000" stroke-width="4" stroke-linejoin="null" stroke-linecap="null" x="670" y="200" width="30" height="30" id="svg_10"/>
  <rect fill="#bfbfbf" stroke="#000000" stroke-width="4" stroke-linejoin="null" stroke-linecap="null" x="670" y="230" width="30" height="30" id="svg_11"/>
  <rect fill="#bfbfbf" stroke="#000000" stroke-width="4" stroke-linejoin="null" stroke-linecap="null" x="670" y="260" width="30" height="30" id="svg_12"/>
  <rect fill="#3f3f3f" stroke="#000000" stroke-width="4" stroke-linejoin="null" stroke-linecap="null" x="700" y="170" width="30" height="30" id="svg_13"/>
  <rect fill="#ffffff" stroke="#000000" stroke-width="4" stroke-linejoin="null" stroke-linecap="null" x="730" y="170" width="30" height="30" id="svg_14"/>
  <rect fill="#3f3f3f" stroke="#000000" stroke-width="4" stroke-linejoin="null" stroke-linecap="null" x="730" y="200" width="30" height="30" id="svg_15"/>
  <rect fill="#ffffff" stroke="#000000" stroke-width="4" stroke-linejoin="null" stroke-linecap="null" x="730" y="230" width="30" height="30" id="svg_16"/>
  <rect fill="#ffffff" stroke="#000000" stroke-width="4" stroke-linejoin="null" stroke-linecap="null" x="730" y="260" width="30" height="30" id="svg_17"/>
  <rect fill="#ffffff" stroke="#000000" stroke-width="4" stroke-linejoin="null" stroke-linecap="null" x="760" y="170" width="30" height="30" id="svg_18"/>
  <rect fill="#bfbfbf" stroke="#000000" stroke-width="4" stroke-linejoin="null" stroke-linecap="null" x="790" y="170" width="30" height="30" id="svg_19"/>
  <rect fill="#ffffff" stroke="#000000" stroke-width="4" stroke-linejoin="null" stroke-linecap="null" x="790" y="200" width="30" height="30" id="svg_20"/>
  <rect fill="#ffffff" stroke="#000000" stroke-width="4" stroke-linejoin="null" stroke-linecap="null" x="790" y="230" width="30" height="30" id="svg_21"/>
  <rect fill="#7f7f7f" stroke="#000000" stroke-width="4" stroke-linejoin="null" stroke-linecap="null" x="790" y="260" width="30" height="30" id="svg_22"/>
  <rect fill="#bfbfbf" stroke="#000000" stroke-width="4" stroke-linejoin="null" stroke-linecap="null" x="860" y="170" width="30" height="30" id="svg_23"/>
  <rect fill="#ffffff" stroke="#000000" stroke-width="4" stroke-linejoin="null" stroke-linecap="null" x="890" y="170" width="30" height="30" id="svg_24"/>
  <rect fill="#ffffff" stroke="#000000" stroke-width="4" stroke-linejoin="null" stroke-linecap="null" x="920" y="170" width="30" height="30" id="svg_25"/>
  <rect fill="#ffffff" stroke="#000000" stroke-width="4" stroke-linejoin="null" stroke-linecap="null" x="920" y="200" width="30" height="30" id="svg_26"/>
  <rect fill="#7f7f7f" stroke="#000000" stroke-width="4" stroke-linejoin="null" stroke-linecap="null" x="920" y="230" width="30" height="30" id="svg_27"/>
  <rect fill="#bfbfbf" stroke="#000000" stroke-width="4" stroke-linejoin="null" stroke-linecap="null" x="920" y="260" width="30" height="30" id="svg_28"/>
  <rect fill="#ffffff" stroke="#000000" stroke-width="4" stroke-linejoin="null" stroke-linecap="null" x="920" y="290" width="30" height="30" id="svg_29"/>
  <rect fill="#7f7f7f" stroke="#000000" stroke-width="4" stroke-linejoin="null" stroke-linecap="null" x="890" y="290" width="30" height="30" id="svg_30"/>
  <rect fill="#7f7f7f" stroke="#000000" stroke-width="4" stroke-linejoin="null" stroke-linecap="null" x="860" y="290" width="30" height="30" id="svg_31"/>
  <rect fill="#ffffff" stroke="#000000" stroke-width="4" stroke-linejoin="null" stroke-linecap="null" x="890" y="230" width="30" height="30" id="svg_32"/>
  <rect fill="#3f3f3f" stroke="#000000" stroke-width="4" stroke-linejoin="null" stroke-linecap="null" x="860" y="230" width="30" height="30" id="svg_33"/>
  <rect fill="#7f7f7f" stroke="#000000" stroke-width="4" stroke-linejoin="null" stroke-linecap="null" x="860" y="200" width="30" height="30" id="svg_34"/>
  <rect fill="#bfbfbf" stroke="#000000" stroke-width="4" stroke-linejoin="null" stroke-linecap="null" x="920" y="140" width="30" height="30" id="svg_35"/>
  <rect fill="#bfbfbf" stroke="#000000" stroke-width="4" stroke-linejoin="null" stroke-linecap="null" x="600" y="170" width="30" height="30" id="svg_38"/>
  <rect fill="none" stroke="#000000" stroke-width="4" stroke-linejoin="null" stroke-linecap="null" x="280" y="140" width="40" height="0" id="svg_40"/>
  <path fill="none" stroke="#000000" stroke-width="4" stroke-linejoin="null" stroke-linecap="null" id="svg_44"/>
  <path fill="#ffcc00" stroke="#ffcc00" stroke-width="4" stroke-linejoin="null" stroke-linecap="null" d="m420,20l150,0l0,150l-120,0l0,90l120,0l0,30l-150,0l0,-150l120,0l0,-90l-120,0l0,-30z" id="svg_45"/>
  <path fill="#ffffff" stroke="#000000" stroke-width="4" stroke-linejoin="null" stroke-linecap="null" d="m60,140l90,0l0,30l-60,0l0,30l60,0l0,90l-90,0l0,-30l60,0l0,-30l-60,0l0,-90z" id="svg_46"/>
  <path fill="#ffffff" stroke="#000000" stroke-width="4" stroke-linejoin="null" stroke-linecap="null" d="m180,170l0,-30l30,0l0,30l60,0l0,30l-60,0l0,90l-30,0l0,-120z" id="svg_47"/>
  <path fill="#ffffff" stroke="#000000" stroke-width="4" stroke-linejoin="null" stroke-linecap="null" d="m300,140l0,150l90,0l0,-30l-60,0l0,-90l60,0l0,-30c-30,0 -60,0 -90,0z" id="svg_48"/>
  <text transform="matrix(6.821878516520883,0,0,1,-862.1380247284011,0) " xml:space="preserve" text-anchor="middle" font-family="serif" font-size="24" id="svg_1" y="99" x="148" stroke-linecap="null" stroke-linejoin="null" stroke-width="0" stroke="#000000" fill="#000000"/>
  <text transform="matrix(22.489736557006836,0,0,6.642857074737549,-3409.816792756319,-287.785710811615) " xml:space="preserve" text-anchor="middle" font-family="serif" font-size="24" id="svg_3" y="73" x="164" stroke-linecap="null" stroke-linejoin="null" stroke-width="0" stroke="#000000" fill="#000000"/>
  <text transform="matrix(0.6151463543763664,0,0,0.5546218466524981,123.14359406423702,149.5758928207169) " font-style="normal" xml:space="preserve" text-anchor="middle" font-family="Monospace" font-size="24" id="svg_36" y="76.303031" x="109.496201" stroke-linecap="null" stroke-linejoin="null" stroke-width="0" stroke="#000000" fill="#000000">_onLangChange: function() {</text>
  <text transform="matrix(0.600771427154541,0,0,0.6071428656578064,11.078592896461487,10.177455136552453) " xml:space="preserve" text-anchor="middle" font-family="Monospace" font-size="24" id="svg_37" y="243.999997" x="371.890855" stroke-linecap="null" stroke-linejoin="null" stroke-width="0" stroke="#000000" fill="#000000">int main ( int argc, char *argv[] );</text>
  <text transform="matrix(0.6741651149969545,0,0,0.6008403910433556,140.75530293174444,-21.37775907444985) " xml:space="preserve" text-anchor="middle" font-family="Monospace" font-size="24" id="svg_39" y="442.125839" x="116.061693" stroke-linecap="null" stroke-linejoin="null" stroke-width="0" stroke="#000000" fill="#000000">void timestamp ( );</text>
  <text transform="matrix(0.46097520938124603,0,0,0.5420303246435019,-11.40074639580562,14.228086589915842) " xml:space="preserve" text-anchor="middle" font-family="Monospace" font-size="24" id="svg_41" y="379.249984" x="509.572926" stroke-linecap="null" stroke-linejoin="null" stroke-width="0" stroke="#000000" fill="#000000">//  Perform one Jacobi sweep, computing B from A.</text>
  <text transform="matrix(0.6360049843788146,0,0,0.6428571343421935,23.338451833464198,257.0379465725273) " xml:space="preserve" text-anchor="middle" font-family="Monospace" font-size="24" id="svg_42" y="39" x="310" stroke-linecap="null" stroke-linejoin="null" stroke-width="0" stroke="#000000" fill="#000000">dx = 1.0 / ( double ) ( nx + 1 );</text>
 </g>
</svg>