<svg width="800" height="270" xmlns="http://www.w3.org/2000/svg"><g transform="scale(.8)"><title>Layer 1</title><path stroke-linecap="null" stroke-linejoin="null" stroke-width="0" stroke="#000" d="M43 82h363v244H43z"/><path fill="#bfbfbf" stroke="#000" stroke-width="4" stroke-linejoin="null" stroke-linecap="null" d="M600 200h30v30h-30z"/><path fill="#fff" stroke="#000" stroke-width="4" stroke-linejoin="null" stroke-linecap="null" d="M600 230h30v30h-30z"/><path fill="#3f3f3f" stroke="#000" stroke-width="4" stroke-linejoin="null" stroke-linecap="null" d="M600 260h30v30h-30z"/><path fill="#fff" stroke="#000" stroke-width="4" stroke-linejoin="null" stroke-linecap="null" d="M600 110h30v30h-30z"/><path fill="#fff" stroke="#000" stroke-width="4" stroke-linejoin="null" stroke-linecap="null" d="M670 170h30v30h-30z"/><path fill="#fff" stroke="#000" stroke-width="4" stroke-linejoin="null" stroke-linecap="null" d="M670 140h30v30h-30z"/><path fill="#7f7f7f" stroke="#000" stroke-width="4" stroke-linejoin="null" stroke-linecap="null" d="M670 200h30v30h-30z"/><path fill="#bfbfbf" stroke="#000" stroke-width="4" stroke-linejoin="null" stroke-linecap="null" d="M670 230h30v30h-30z"/><path fill="#bfbfbf" stroke="#000" stroke-width="4" stroke-linejoin="null" stroke-linecap="null" d="M670 260h30v30h-30z"/><path fill="#3f3f3f" stroke="#000" stroke-width="4" stroke-linejoin="null" stroke-linecap="null" d="M700 170h30v30h-30z"/><path fill="#fff" stroke="#000" stroke-width="4" stroke-linejoin="null" stroke-linecap="null" d="M730 170h30v30h-30z"/><path fill="#3f3f3f" stroke="#000" stroke-width="4" stroke-linejoin="null" stroke-linecap="null" d="M730 200h30v30h-30z"/><path fill="#fff" stroke="#000" stroke-width="4" stroke-linejoin="null" stroke-linecap="null" d="M730 230h30v30h-30z"/><path fill="#fff" stroke="#000" stroke-width="4" stroke-linejoin="null" stroke-linecap="null" d="M730 260h30v30h-30z"/><path fill="#fff" stroke="#000" stroke-width="4" stroke-linejoin="null" stroke-linecap="null" d="M760 170h30v30h-30z"/><path fill="#bfbfbf" stroke="#000" stroke-width="4" stroke-linejoin="null" stroke-linecap="null" d="M790 170h30v30h-30z"/><path fill="#fff" stroke="#000" stroke-width="4" stroke-linejoin="null" stroke-linecap="null" d="M790 200h30v30h-30z"/><path fill="#fff" stroke="#000" stroke-width="4" stroke-linejoin="null" stroke-linecap="null" d="M790 230h30v30h-30z"/><path fill="#7f7f7f" stroke="#000" stroke-width="4" stroke-linejoin="null" stroke-linecap="null" d="M790 260h30v30h-30z"/><path fill="#bfbfbf" stroke="#000" stroke-width="4" stroke-linejoin="null" stroke-linecap="null" d="M860 170h30v30h-30z"/><path fill="#fff" stroke="#000" stroke-width="4" stroke-linejoin="null" stroke-linecap="null" d="M890 170h30v30h-30z"/><path fill="#fff" stroke="#000" stroke-width="4" stroke-linejoin="null" stroke-linecap="null" d="M920 170h30v30h-30z"/><path fill="#fff" stroke="#000" stroke-width="4" stroke-linejoin="null" stroke-linecap="null" d="M920 200h30v30h-30z"/><path fill="#7f7f7f" stroke="#000" stroke-width="4" stroke-linejoin="null" stroke-linecap="null" d="M920 230h30v30h-30z"/><path fill="#bfbfbf" stroke="#000" stroke-width="4" stroke-linejoin="null" stroke-linecap="null" d="M920 260h30v30h-30z"/><path fill="#fff" stroke="#000" stroke-width="4" stroke-linejoin="null" stroke-linecap="null" d="M920 290h30v30h-30z"/><path fill="#7f7f7f" stroke="#000" stroke-width="4" stroke-linejoin="null" stroke-linecap="null" d="M890 290h30v30h-30z"/><path fill="#7f7f7f" stroke="#000" stroke-width="4" stroke-linejoin="null" stroke-linecap="null" d="M860 290h30v30h-30z"/><path fill="#fff" stroke="#000" stroke-width="4" stroke-linejoin="null" stroke-linecap="null" d="M890 230h30v30h-30z"/><path fill="#3f3f3f" stroke="#000" stroke-width="4" stroke-linejoin="null" stroke-linecap="null" d="M860 230h30v30h-30z"/><path fill="#7f7f7f" stroke="#000" stroke-width="4" stroke-linejoin="null" stroke-linecap="null" d="M860 200h30v30h-30z"/><path fill="#bfbfbf" stroke="#000" stroke-width="4" stroke-linejoin="null" stroke-linecap="null" d="M920 140h30v30h-30z"/><path fill="#bfbfbf" stroke="#000" stroke-width="4" stroke-linejoin="null" stroke-linecap="null" d="M600 170h30v30h-30z"/><path fill="#fc0" stroke="#fc0" stroke-width="4" stroke-linejoin="null" stroke-linecap="null" d="M420 20h150v150H450v90h120v30H420V140h120V50H420V20z"/><path fill="#fff" stroke="#000" stroke-width="4" stroke-linejoin="null" stroke-linecap="null" d="M60 140h90v30H90v30h60v90H60v-30h60v-30H60v-90z"/><path fill="#fff" stroke="#000" stroke-width="4" stroke-linejoin="null" stroke-linecap="null" d="M180 170v-30h30v30h60v30h-60v90h-30V170z"/><path fill="#fff" stroke="#000" stroke-width="4" stroke-linejoin="null" stroke-linecap="null" d="M300 140v150h90v-30h-60v-90h60v-30h-90z"/><text transform="matrix(.615 0 0 .555 123.144 149.576)" text-anchor="middle" font-family="Monospace" font-size="24" y="76.303" x="109.496" stroke-linecap="null" stroke-linejoin="null" stroke-width="0" stroke="#000">_onLangChange: function() {</text><text transform="matrix(.601 0 0 .607 11.079 10.177)" text-anchor="middle" font-family="Monospace" font-size="24" y="244" x="371.891" stroke-linecap="null" stroke-linejoin="null" stroke-width="0" stroke="#000">int main ( int argc, char *argv[] );</text><text transform="matrix(.674 0 0 .601 140.755 -21.378)" text-anchor="middle" font-family="Monospace" font-size="24" y="442.126" x="116.062" stroke-linecap="null" stroke-linejoin="null" stroke-width="0" stroke="#000">void timestamp ( );</text><text transform="matrix(.461 0 0 .542 -11.401 14.228)" text-anchor="middle" font-family="Monospace" font-size="24" y="379.25" x="509.573" stroke-linecap="null" stroke-linejoin="null" stroke-width="0" stroke="#000">// Perform one Jacobi sweep, computing B from A.</text><text transform="matrix(.636 0 0 .643 23.338 257.038)" text-anchor="middle" font-family="Monospace" font-size="24" y="39" x="310" stroke-linecap="null" stroke-linejoin="null" stroke-width="0" stroke="#000">dx = 1.0 / ( double ) ( nx + 1 );</text></g></svg>